<svg width="800" height="245" viewBox="0 0 800 245" fill="none" xmlns="http://www.w3.org/2000/svg">
<g clip-path="url(#clip0_462_4973)">
<rect width="800" height="245" rx="20" fill="#443EDE"/>
<path d="M673 32C673 32 675.207 69.0795 683.804 84.5535C692.4 100.027 713 104 713 104C713 104 692.4 107.973 683.804 123.447C675.207 138.92 673 176 673 176C673 176 670.793 138.92 662.196 123.447C653.6 107.973 633 104 633 104C633 104 653.6 100.027 662.196 84.5535C670.793 69.0795 673 32 673 32Z" fill="white" fill-opacity="0.3"/>
<path d="M743 116C743 116 745.207 153.08 753.804 168.553C762.4 184.027 783 188 783 188C783 188 762.4 191.973 753.804 207.447C745.207 222.92 743 260 743 260C743 260 740.793 222.92 732.196 207.447C723.6 191.973 703 188 703 188C703 188 723.6 184.027 732.196 168.553C740.793 153.08 743 116 743 116Z" fill="white" fill-opacity="0.1"/>
<path d="M612 137C612 137 614.207 180.517 622.804 198.677C631.4 216.838 652 221.5 652 221.5C652 221.5 631.4 226.162 622.804 244.323C614.207 262.483 612 306 612 306C612 306 609.793 262.483 601.196 244.323C592.6 226.162 572 221.5 572 221.5C572 221.5 592.6 216.838 601.196 198.677C609.793 180.517 612 137 612 137Z" fill="white" fill-opacity="0.1"/>
<path d="M742.5 -91C742.5 -91 744.183 -44.1356 750.738 -24.5783C757.293 -5.02095 773 2.6226e-06 773 2.6226e-06C773 2.6226e-06 757.293 5.02095 750.738 24.5783C744.183 44.1356 742.5 91 742.5 91C742.5 91 740.817 44.1356 734.262 24.5783C727.707 5.02095 712 2.6226e-06 712 2.6226e-06C712 2.6226e-06 727.707 -5.02095 734.262 -24.5783C740.817 -44.1356 742.5 -91 742.5 -91Z" fill="white" fill-opacity="0.1"/>
<path d="M611.5 -30C611.5 -30 613.183 1.92961 619.738 15.2544C626.293 28.5791 642 32 642 32C642 32 626.293 35.4209 619.738 48.7456C613.183 62.0704 611.5 94 611.5 94C611.5 94 609.817 62.0704 603.262 48.7456C596.707 35.4209 581 32 581 32C581 32 596.707 28.5791 603.262 15.2544C609.817 1.92961 611.5 -30 611.5 -30Z" fill="white" fill-opacity="0.1"/>
</g>
<ellipse cx="48" cy="193" rx="12" ry="12" transform="rotate(-90 48 193)" fill="#FFB13E"/>
<ellipse cx="76" cy="178" rx="6" ry="6" transform="rotate(-90 76 178)" fill="#FFB13E"/>
<defs>
<clipPath id="clip0_462_4973">
<rect width="800" height="245" rx="20" fill="white"/>
</clipPath>
</defs>
</svg>
