<svg width="32" height="33" viewBox="0 0 32 33" fill="none" xmlns="http://www.w3.org/2000/svg">
<path d="M10.6665 8.16675C10.1198 8.16675 9.6665 7.71341 9.6665 7.16675V3.16675C9.6665 2.62008 10.1198 2.16675 10.6665 2.16675C11.2132 2.16675 11.6665 2.62008 11.6665 3.16675V7.16675C11.6665 7.71341 11.2132 8.16675 10.6665 8.16675Z" fill="#443EDE"/>
<path d="M21.3335 8.16675C20.7868 8.16675 20.3335 7.71341 20.3335 7.16675V3.16675C20.3335 2.62008 20.7868 2.16675 21.3335 2.16675C21.8802 2.16675 22.3335 2.62008 22.3335 3.16675V7.16675C22.3335 7.71341 21.8802 8.16675 21.3335 8.16675Z" fill="#443EDE"/>
<path d="M11.3333 19.8331C11.16 19.8331 10.9867 19.7931 10.8267 19.7264C10.6533 19.6598 10.52 19.5664 10.3867 19.4464C10.1467 19.1931 10 18.8598 10 18.4998C10 18.3264 10.04 18.1531 10.1067 17.9931C10.1733 17.8331 10.2667 17.6864 10.3867 17.5531C10.52 17.4331 10.6533 17.3397 10.8267 17.2731C11.3067 17.0731 11.9067 17.1798 12.28 17.5531C12.52 17.8064 12.6667 18.1531 12.6667 18.4998C12.6667 18.5798 12.6533 18.6731 12.64 18.7664C12.6267 18.8464 12.6 18.9264 12.56 19.0064C12.5333 19.0864 12.4933 19.1664 12.44 19.2464C12.4 19.3131 12.3333 19.3798 12.28 19.4464C12.0267 19.6864 11.68 19.8331 11.3333 19.8331Z" fill="#443EDE"/>
<path d="M15.9998 19.8332C15.8265 19.8332 15.6532 19.7932 15.4932 19.7265C15.3198 19.6598 15.1865 19.5665 15.0532 19.4465C14.8132 19.1932 14.6665 18.8598 14.6665 18.4998C14.6665 18.3265 14.7065 18.1532 14.7732 17.9932C14.8398 17.8332 14.9332 17.6865 15.0532 17.5532C15.1865 17.4332 15.3198 17.3398 15.4932 17.2731C15.9732 17.0598 16.5732 17.1798 16.9465 17.5532C17.1865 17.8065 17.3332 18.1532 17.3332 18.4998C17.3332 18.5798 17.3198 18.6732 17.3065 18.7665C17.2932 18.8465 17.2665 18.9265 17.2265 19.0065C17.1998 19.0865 17.1598 19.1665 17.1065 19.2465C17.0665 19.3132 16.9998 19.3798 16.9465 19.4465C16.6932 19.6865 16.3465 19.8332 15.9998 19.8332Z" fill="#443EDE"/>
<path d="M20.6668 19.8332C20.4935 19.8332 20.3202 19.7932 20.1602 19.7265C19.9868 19.6598 19.8535 19.5665 19.7202 19.4465C19.6668 19.3798 19.6135 19.3132 19.5602 19.2465C19.5068 19.1665 19.4668 19.0865 19.4402 19.0065C19.4002 18.9265 19.3735 18.8465 19.3602 18.7665C19.3468 18.6732 19.3335 18.5798 19.3335 18.4998C19.3335 18.1532 19.4802 17.8065 19.7202 17.5532C19.8535 17.4332 19.9868 17.3398 20.1602 17.2731C20.6535 17.0598 21.2402 17.1798 21.6135 17.5532C21.8535 17.8065 22.0002 18.1532 22.0002 18.4998C22.0002 18.5798 21.9868 18.6732 21.9735 18.7665C21.9602 18.8465 21.9335 18.9265 21.8935 19.0065C21.8668 19.0865 21.8268 19.1665 21.7735 19.2465C21.7335 19.3132 21.6668 19.3798 21.6135 19.4465C21.3602 19.6865 21.0135 19.8332 20.6668 19.8332Z" fill="#443EDE"/>
<path d="M11.3333 24.5003C11.16 24.5003 10.9867 24.4603 10.8267 24.3937C10.6667 24.327 10.52 24.2337 10.3867 24.1137C10.1467 23.8603 10 23.5137 10 23.167C10 22.9937 10.04 22.8203 10.1067 22.6603C10.1733 22.487 10.2667 22.3403 10.3867 22.2203C10.88 21.727 11.7867 21.727 12.28 22.2203C12.52 22.4737 12.6667 22.8203 12.6667 23.167C12.6667 23.5137 12.52 23.8603 12.28 24.1137C12.0267 24.3537 11.68 24.5003 11.3333 24.5003Z" fill="#443EDE"/>
<path d="M15.9998 24.5003C15.6532 24.5003 15.3065 24.3537 15.0532 24.1137C14.8132 23.8603 14.6665 23.5137 14.6665 23.167C14.6665 22.9937 14.7065 22.8203 14.7732 22.6603C14.8398 22.487 14.9332 22.3403 15.0532 22.2203C15.5465 21.727 16.4532 21.727 16.9465 22.2203C17.0665 22.3403 17.1598 22.487 17.2265 22.6603C17.2932 22.8203 17.3332 22.9937 17.3332 23.167C17.3332 23.5137 17.1865 23.8603 16.9465 24.1137C16.6932 24.3537 16.3465 24.5003 15.9998 24.5003Z" fill="#443EDE"/>
<path d="M20.6668 24.4999C20.3202 24.4999 19.9735 24.3532 19.7202 24.1132C19.6002 23.9932 19.5068 23.8466 19.4402 23.6732C19.3735 23.5132 19.3335 23.3399 19.3335 23.1666C19.3335 22.9932 19.3735 22.8199 19.4402 22.6599C19.5068 22.4865 19.6002 22.3399 19.7202 22.2199C20.0268 21.9132 20.4935 21.7665 20.9202 21.8599C21.0135 21.8732 21.0935 21.8999 21.1735 21.9399C21.2535 21.9665 21.3335 22.0066 21.4135 22.0599C21.4802 22.0999 21.5468 22.1666 21.6135 22.2199C21.8535 22.4732 22.0002 22.8199 22.0002 23.1666C22.0002 23.5132 21.8535 23.8599 21.6135 24.1132C21.3602 24.3532 21.0135 24.4999 20.6668 24.4999Z" fill="#443EDE"/>
<path d="M27.3332 13.6199H4.6665C4.11984 13.6199 3.6665 13.1665 3.6665 12.6199C3.6665 12.0732 4.11984 11.6199 4.6665 11.6199H27.3332C27.8798 11.6199 28.3332 12.0732 28.3332 12.6199C28.3332 13.1665 27.8798 13.6199 27.3332 13.6199Z" fill="#443EDE"/>
<path d="M21.3333 30.8334H10.6667C5.8 30.8334 3 28.0334 3 23.1667V11.8334C3 6.96675 5.8 4.16675 10.6667 4.16675H21.3333C26.2 4.16675 29 6.96675 29 11.8334V23.1667C29 28.0334 26.2 30.8334 21.3333 30.8334ZM10.6667 6.16675C6.85333 6.16675 5 8.02008 5 11.8334V23.1667C5 26.9801 6.85333 28.8334 10.6667 28.8334H21.3333C25.1467 28.8334 27 26.9801 27 23.1667V11.8334C27 8.02008 25.1467 6.16675 21.3333 6.16675H10.6667Z" fill="#443EDE"/>
</svg>
