<svg width="98" height="97" viewBox="0 0 98 97" fill="none" xmlns="http://www.w3.org/2000/svg">
<path d="M4.10568 6.32787L4.10424 6.328C3.84159 6.3511 3.646 6.5662 3.646 6.82687V86.9788C3.646 87.2253 3.81323 87.4294 4.06191 87.4749L4.10568 6.32787ZM4.10568 6.32787L40.6884 3.09169L40.689 3.09163C40.8334 3.07883 40.9644 3.12163 41.0763 3.22316C41.1793 3.31837 41.2352 3.44154 41.2352 3.59238V93.4986C41.2352 93.6475 41.1716 93.7845 41.0561 93.8812L41.0475 93.8885C40.9418 93.9777 40.7995 94.019 40.6479 93.9918L40.6446 93.9912L4.06423 87.4754L4.10568 6.32787ZM28.9177 48.5438C28.9177 50.2896 29.3148 52.018 30.1095 53.4144C30.8541 54.7226 32.3438 56.3347 34.6452 56.3347C36.9461 56.3347 38.4366 54.7243 39.1822 53.415C39.9776 52.0184 40.3747 50.2896 40.3747 48.5438C40.3747 46.7964 39.9779 45.0673 39.1815 43.6705C38.4337 42.3589 36.9425 40.7549 34.6452 40.7549C32.3475 40.7549 30.8571 42.3607 30.1103 43.6711C29.3145 45.0676 28.9177 46.7964 28.9177 48.5438Z" stroke="#443EDE" stroke-width="6"/>
<path d="M97.3538 46.6687L68.7606 25.4378V36.4519H46.5457V56.753H68.7606V67.7639L97.3538 46.6687Z" fill="#292585"/>
<path d="M31.9182 48.5435C31.9182 51.1867 33.1399 53.3344 34.6457 53.3344C36.1534 53.3344 37.3751 51.1867 37.3751 48.5435C37.3751 45.8957 36.1533 43.7546 34.6457 43.7546C33.1399 43.7546 31.9182 45.8957 31.9182 48.5435Z" fill="white"/>
<path d="M66.2713 33.3288V5.92655C66.2713 5.20785 65.9821 4.50401 65.4724 3.99595C64.9677 3.48824 64.2639 3.19556 63.5469 3.19556H46.5457V8.6535H60.8162V33.3288H66.2713Z" fill="#443EDE"/>
<path d="M46.5457 88.4354V93.8934H63.5469C64.2639 93.8934 64.9677 93.6032 65.4724 93.0925C65.9821 92.5858 66.2713 91.8809 66.2713 91.1629V59.7083H60.8164V88.4353H46.5457V88.4354Z" fill="#443EDE"/>
</svg>
