<svg width="96" height="96" viewBox="0 0 96 96" fill="none" xmlns="http://www.w3.org/2000/svg">
<path d="M30.7643 50.752C23.1393 52.082 15.0223 49.796 9.13632 43.909C-0.493682 34.279 -0.493682 18.675 9.13632 9.04499C18.7523 -0.572014 34.3653 -0.577015 43.9933 9.05298C49.8793 14.937 52.1653 23.056 50.8373 30.68" fill="#292585"/>
<path d="M30.7643 50.752C23.1393 52.082 15.0223 49.796 9.13632 43.909C-0.493682 34.279 -0.493682 18.675 9.13632 9.04499C18.7523 -0.572014 34.3653 -0.577015 43.9933 9.05298C49.8793 14.937 52.1653 23.056 50.8373 30.68" stroke="#292585" stroke-width="3" stroke-miterlimit="10" stroke-linecap="round" stroke-linejoin="round"/>
<path d="M17.2993 35.677C12.1963 30.575 12.1953 22.3 17.2993 17.198C22.4023 12.094 30.6763 12.096 35.7783 17.198" stroke="#D4CDFF" stroke-width="3" stroke-miterlimit="10" stroke-linecap="round" stroke-linejoin="round"/>
<path d="M72.6234 45.903L32.6704 32.584L49.6074 83.399L59.5954 73.41L78.1854 92L92.0864 78.1L73.4964 59.51L83.4834 49.522" stroke="#443EDE" stroke-width="7" stroke-miterlimit="10" stroke-linecap="round" stroke-linejoin="round"/>
</svg>
