<svg width="100" height="99" viewBox="0 0 100 99" fill="none" xmlns="http://www.w3.org/2000/svg">
<path d="M78.748 8.29498C85.698 8.29498 91.353 13.949 91.353 20.899V78.395C91.353 85.345 85.699 91 78.748 91H21.252C14.302 91 8.64697 85.346 8.64697 78.395V20.899C8.64697 13.949 14.301 8.29498 21.252 8.29498H78.748ZM78.748 0.294983H21.252C9.87198 0.294983 0.646973 9.51998 0.646973 20.899V78.395C0.646973 89.775 9.87198 99 21.252 99H78.748C90.128 99 99.353 89.775 99.353 78.395V20.899C99.352 9.51998 90.127 0.294983 78.748 0.294983Z" fill="#563CFF"/>
<path d="M74.1551 54.597C72.6341 54.597 71.4001 55.83 71.4001 57.352V66.612C71.4001 67.801 70.4361 68.764 69.2481 68.764H30.7521C29.5631 68.764 28.6001 67.8 28.6001 66.612V57.352C28.6001 55.831 27.3671 54.597 25.8451 54.597C24.3231 54.597 23.0901 55.83 23.0901 57.352V66.613C23.0901 70.845 26.5211 74.275 30.7521 74.275H69.2461C73.4781 74.275 76.9091 70.844 76.9091 66.612V57.352C76.9101 55.831 75.6771 54.597 74.1551 54.597Z" fill="#563CFF"/>
<path d="M48.0032 63.508C48.5132 64.073 49.2392 64.396 50.0002 64.396C50.7622 64.396 51.4872 64.073 51.9982 63.508L63.9772 50.234C64.6892 49.444 64.8702 48.31 64.4382 47.338C64.0062 46.366 63.0422 45.74 61.9792 45.74H56.3232V38.607C56.3232 37.121 55.1182 35.916 53.6322 35.916H46.3662C44.8802 35.916 43.6752 37.121 43.6752 38.607V45.74H38.0192C36.9562 45.74 35.9922 46.366 35.5602 47.338C35.1282 48.31 35.3092 49.445 36.0212 50.234L48.0032 63.508Z" fill="#081A7D"/>
<path d="M46.367 32.666H53.633C55.119 32.666 56.324 31.461 56.324 29.975V27.528C56.324 26.042 55.119 24.837 53.633 24.837H46.367C44.881 24.837 43.676 26.042 43.676 27.528V29.975C43.676 31.461 44.881 32.666 46.367 32.666Z" fill="#081A7D"/>
</svg>
