<svg width="32" height="33" viewBox="0 0 32 33" fill="none" xmlns="http://www.w3.org/2000/svg">
<path d="M16.0134 23.1667C14.8801 23.1667 13.7334 22.8734 12.8401 22.3L4.81342 17.06C3.32009 16.0867 2.42676 14.4467 2.42676 12.66C2.42676 10.8734 3.32009 9.23338 4.81342 8.26005L12.8534 3.03338C14.6401 1.87338 17.4268 1.87338 19.2001 3.04671L27.1868 8.28671C28.6668 9.26005 29.5601 10.9 29.5601 12.6734C29.5601 14.4467 28.6668 16.0867 27.1868 17.06L19.2001 22.3C18.3068 22.8867 17.1601 23.1667 16.0134 23.1667ZM16.0134 4.16671C15.2534 4.16671 14.4934 4.34005 13.9468 4.71338L5.92009 9.94005C4.98676 10.5534 4.44009 11.54 4.44009 12.66C4.44009 13.78 4.97342 14.7667 5.92009 15.38L13.9468 20.62C15.0534 21.34 17.0001 21.34 18.1068 20.62L26.0934 15.38C27.0268 14.7667 27.5601 13.78 27.5601 12.66C27.5601 11.54 27.0268 10.5534 26.0934 9.94005L18.1068 4.70005C17.5468 4.35338 16.7868 4.16671 16.0134 4.16671Z" fill="#443EDE"/>
<path d="M15.9999 30.8333C15.4132 30.8333 14.8132 30.7533 14.3332 30.5933L10.0799 29.1799C8.06658 28.5133 6.47991 26.3133 6.49325 24.1933L6.50658 17.9399C6.50658 17.3933 6.95991 16.9399 7.50658 16.9399C8.05325 16.9399 8.50658 17.3933 8.50658 17.9399L8.49325 24.1933C8.49325 25.4466 9.53325 26.8866 10.7199 27.2866L14.9732 28.6999C15.5066 28.8733 16.4932 28.8733 17.0266 28.6999L21.2799 27.2866C22.4666 26.8866 23.5066 25.4466 23.5066 24.2066V18.0199C23.5066 17.4733 23.9599 17.0199 24.5066 17.0199C25.0532 17.0199 25.5066 17.4733 25.5066 18.0199V24.2066C25.5066 26.3266 23.9332 28.5133 21.9199 29.1933L17.6666 30.6066C17.1866 30.7533 16.5866 30.8333 15.9999 30.8333Z" fill="#443EDE"/>
<path d="M28.5332 21.5C27.9865 21.5 27.5332 21.0467 27.5332 20.5V12.5C27.5332 11.9533 27.9865 11.5 28.5332 11.5C29.0799 11.5 29.5332 11.9533 29.5332 12.5V20.5C29.5332 21.0467 29.0799 21.5 28.5332 21.5Z" fill="#443EDE"/>
</svg>
