<svg width="32" height="33" viewBox="0 0 32 33" fill="none" xmlns="http://www.w3.org/2000/svg">
<path d="M29.3333 11.8601V5.80675C29.3333 3.92675 28.48 3.16675 26.36 3.16675H20.9733C18.8533 3.16675 18 3.92675 18 5.80675V11.8467C18 13.7401 18.8533 14.4867 20.9733 14.4867H26.36C28.48 14.5001 29.3333 13.7401 29.3333 11.8601Z" fill="white"/>
<path d="M29.3333 26.86V21.4733C29.3333 19.3533 28.48 18.5 26.36 18.5H20.9733C18.8533 18.5 18 19.3533 18 21.4733V26.86C18 28.98 18.8533 29.8333 20.9733 29.8333H26.36C28.48 29.8333 29.3333 28.98 29.3333 26.86Z" fill="white"/>
<path d="M13.9998 11.8601V5.80675C13.9998 3.92675 13.1465 3.16675 11.0265 3.16675H5.63984C3.51984 3.16675 2.6665 3.92675 2.6665 5.80675V11.8467C2.6665 13.7401 3.51984 14.4867 5.63984 14.4867H11.0265C13.1465 14.5001 13.9998 13.7401 13.9998 11.8601Z" fill="white"/>
<path d="M13.9998 26.86V21.4733C13.9998 19.3533 13.1465 18.5 11.0265 18.5H5.63984C3.51984 18.5 2.6665 19.3533 2.6665 21.4733V26.86C2.6665 28.98 3.51984 29.8333 5.63984 29.8333H11.0265C13.1465 29.8333 13.9998 28.98 13.9998 26.86Z" fill="white"/>
</svg>
