<svg width="83" height="82" viewBox="0 0 83 82" fill="none" xmlns="http://www.w3.org/2000/svg">
<rect x="0.5" width="82" height="82" rx="41" fill="#FFB13E"/>
<path d="M41.5 56.375C49.9914 56.375 56.875 49.4914 56.875 41C56.875 32.5086 49.9914 25.625 41.5 25.625C33.0086 25.625 26.125 32.5086 26.125 41C26.125 49.4914 33.0086 56.375 41.5 56.375Z" stroke="white" stroke-width="2.5625"/>
<path d="M41.5009 52.1029C41.9726 52.1029 42.3551 51.7204 42.3551 51.2487C42.3551 50.777 41.9726 50.3945 41.5009 50.3945C41.0292 50.3945 40.6467 50.777 40.6467 51.2487C40.6467 51.7204 41.0292 52.1029 41.5009 52.1029Z" fill="white" stroke="white" stroke-width="1.28125"/>
<path d="M41.5 47.834V45.4099C41.5 43.7972 42.5318 42.3656 44.0625 41.8548C44.8086 41.606 45.4576 41.1288 45.9175 40.4908C46.3773 39.8528 46.6249 39.0863 46.625 38.2998V37.4234C46.625 34.6798 44.4042 32.459 41.6606 32.459H41.5C40.1408 32.459 38.8372 32.9989 37.8761 33.9601C36.915 34.9212 36.375 36.2247 36.375 37.584" stroke="white" stroke-width="2.5625"/>
</svg>
