<svg width="40" height="54" viewBox="0 0 40 54" fill="none" xmlns="http://www.w3.org/2000/svg">
<path d="M6.66667 0.333008H24.31C25.194 0.333197 26.0417 0.68451 26.6667 1.30967L39.0233 13.6663C39.6485 14.2913 39.9998 15.139 40 16.023V46.9997C40 48.7678 39.2976 50.4635 38.0474 51.7137C36.7971 52.964 35.1014 53.6663 33.3333 53.6663H6.66667C4.89856 53.6663 3.20286 52.964 1.95262 51.7137C0.702379 50.4635 0 48.7678 0 46.9997V6.99967C0 5.23156 0.702379 3.53587 1.95262 2.28563C3.20286 1.03539 4.89856 0.333008 6.66667 0.333008V0.333008ZM25 5.33301V11.9997C25 12.8837 25.3512 13.7316 25.9763 14.3567C26.6014 14.9818 27.4493 15.333 28.3333 15.333H35L25 5.33301Z" fill="#443EDE"/>
<path d="M7.42 36.413C7.12 36.413 6.87333 36.3263 6.68 36.153C6.49333 35.973 6.4 35.753 6.4 35.493C6.4 35.2263 6.49333 35.003 6.68 34.823C6.87333 34.643 7.12 34.553 7.42 34.553C7.71333 34.553 7.95333 34.643 8.14 34.823C8.33333 35.003 8.43 35.2263 8.43 35.493C8.43 35.753 8.33333 35.973 8.14 36.153C7.95333 36.3263 7.71333 36.413 7.42 36.413ZM12.5723 29.313C13.3123 29.313 13.9589 29.4597 14.5123 29.753C15.0656 30.0463 15.4923 30.4597 15.7923 30.993C16.0989 31.5197 16.2523 32.1297 16.2523 32.823C16.2523 33.5097 16.0989 34.1197 15.7923 34.653C15.4923 35.1863 15.0623 35.5997 14.5023 35.893C13.9489 36.1863 13.3056 36.333 12.5723 36.333H9.94227V29.313H12.5723ZM12.4623 34.853C13.1089 34.853 13.6123 34.6763 13.9723 34.323C14.3323 33.9697 14.5123 33.4697 14.5123 32.823C14.5123 32.1763 14.3323 31.673 13.9723 31.313C13.6123 30.953 13.1089 30.773 12.4623 30.773H11.6523V34.853H12.4623ZM21.0279 36.403C20.3679 36.403 19.7612 36.2497 19.2079 35.943C18.6612 35.6363 18.2246 35.2097 17.8979 34.663C17.5779 34.1097 17.4179 33.4897 17.4179 32.803C17.4179 32.1163 17.5779 31.4997 17.8979 30.953C18.2246 30.4063 18.6612 29.9797 19.2079 29.673C19.7612 29.3663 20.3679 29.213 21.0279 29.213C21.6879 29.213 22.2912 29.3663 22.8379 29.673C23.3912 29.9797 23.8246 30.4063 24.1379 30.953C24.4579 31.4997 24.6179 32.1163 24.6179 32.803C24.6179 33.4897 24.4579 34.1097 24.1379 34.663C23.8179 35.2097 23.3846 35.6363 22.8379 35.943C22.2912 36.2497 21.6879 36.403 21.0279 36.403ZM21.0279 34.843C21.5879 34.843 22.0346 34.6563 22.3679 34.283C22.7079 33.9097 22.8779 33.4163 22.8779 32.803C22.8779 32.183 22.7079 31.6897 22.3679 31.323C22.0346 30.9497 21.5879 30.763 21.0279 30.763C20.4612 30.763 20.0079 30.9463 19.6679 31.313C19.3346 31.6797 19.1679 32.1763 19.1679 32.803C19.1679 33.423 19.3346 33.9197 19.6679 34.293C20.0079 34.6597 20.4612 34.843 21.0279 34.843ZM25.7792 32.813C25.7792 32.1197 25.9292 31.503 26.2292 30.963C26.5292 30.4163 26.9459 29.993 27.4792 29.693C28.0192 29.3863 28.6292 29.233 29.3092 29.233C30.1426 29.233 30.8559 29.453 31.4492 29.893C32.0426 30.333 32.4392 30.933 32.6392 31.693H30.7592C30.6192 31.3997 30.4192 31.1763 30.1592 31.023C29.9059 30.8697 29.6159 30.793 29.2892 30.793C28.7626 30.793 28.3359 30.9763 28.0092 31.343C27.6826 31.7097 27.5192 32.1997 27.5192 32.813C27.5192 33.4263 27.6826 33.9163 28.0092 34.283C28.3359 34.6497 28.7626 34.833 29.2892 34.833C29.6159 34.833 29.9059 34.7563 30.1592 34.603C30.4192 34.4497 30.6192 34.2263 30.7592 33.933H32.6392C32.4392 34.693 32.0426 35.293 31.4492 35.733C30.8559 36.1663 30.1426 36.383 29.3092 36.383C28.6292 36.383 28.0192 36.233 27.4792 35.933C26.9459 35.6263 26.5292 35.203 26.2292 34.663C25.9292 34.123 25.7792 33.5063 25.7792 32.813Z" fill="white"/>
</svg>
