<svg width="20" height="21" viewBox="0 0 20 21" fill="none" xmlns="http://www.w3.org/2000/svg">
<g clip-path="url(#clip0_207_91)">
<path d="M16.6641 3.74805H3.33073C2.41406 3.74805 1.6724 4.49805 1.6724 5.41471L1.66406 15.4147C1.66406 16.3314 2.41406 17.0814 3.33073 17.0814H16.6641C17.5807 17.0814 18.3307 16.3314 18.3307 15.4147V5.41471C18.3307 4.49805 17.5807 3.74805 16.6641 3.74805ZM15.8307 15.4147H4.16406C3.70573 15.4147 3.33073 15.0397 3.33073 14.5814V7.08138L9.11406 10.698C9.65573 11.0397 10.3391 11.0397 10.8807 10.698L16.6641 7.08138V14.5814C16.6641 15.0397 16.2891 15.4147 15.8307 15.4147ZM9.9974 9.58138L3.33073 5.41471H16.6641L9.9974 9.58138Z" fill="white"/>
</g>
<defs>
<clipPath id="clip0_207_91">
<rect width="20" height="20" fill="white" transform="translate(0 0.412109)"/>
</clipPath>
</defs>
</svg>
