<svg width="24" height="25" viewBox="0 0 24 25" fill="none" xmlns="http://www.w3.org/2000/svg">
<path d="M5.75 3.58789C4.24011 3.58789 3 4.828 3 6.33789V18.8379C3 20.3478 4.24011 21.5879 5.75 21.5879H18.25C19.7599 21.5879 21 20.3478 21 18.8379V6.33789C21 4.828 19.7599 3.58789 18.25 3.58789H5.75ZM5.75 5.08789H18.25C18.9491 5.08789 19.5 5.63878 19.5 6.33789V18.8379C19.5 19.537 18.9491 20.0879 18.25 20.0879H15V15.0879H16.8125C17.0645 15.0879 17.2776 14.8994 17.3086 14.6494L17.4961 13.1494C17.5141 13.0074 17.469 12.8648 17.374 12.7568C17.2795 12.6493 17.1435 12.5879 17 12.5879H15V10.8379C15 10.2864 15.4485 9.83789 16 9.83789H17C17.276 9.83789 17.5 9.61439 17.5 9.33789V7.65039C17.5 7.39139 17.3024 7.17534 17.0449 7.15234C17.0154 7.14984 16.31 7.08789 15.417 7.08789C13.2135 7.08789 12 8.39598 12 10.7715V12.5879H10C9.724 12.5879 9.5 12.8114 9.5 13.0879V14.5879C9.5 14.8644 9.724 15.0879 10 15.0879H12V20.0879H5.75C5.05089 20.0879 4.5 19.537 4.5 18.8379V6.33789C4.5 5.63878 5.05089 5.08789 5.75 5.08789Z" fill="#F4F4F4"/>
</svg>
