<svg width="24" height="24" viewBox="0 0 24 24" fill="none" xmlns="http://www.w3.org/2000/svg">
<g clip-path="url(#clip0_143_236)">
<path d="M12.2449 9.81812V14.4654H18.8349C18.5455 15.96 17.6771 17.2255 16.3747 18.0764L20.3487 21.0982C22.6642 19.0038 24 15.9273 24 12.2728C24 11.4219 23.9221 10.6036 23.7773 9.81825L12.2449 9.81812Z" fill="#4285F4"/>
<path d="M5.3825 14.2842L4.48621 14.9566L1.3136 17.3784C3.32845 21.2947 7.45803 24.0002 12.2447 24.0002C15.5507 24.0002 18.3225 22.9311 20.3485 21.0984L16.3745 18.0766C15.2836 18.7966 13.8921 19.233 12.2447 19.233C9.06099 19.233 6.35605 17.1275 5.38751 14.2911L5.3825 14.2842Z" fill="#34A853"/>
<path d="M1.31358 6.62183C0.478739 8.23631 0.00012207 10.0582 0.00012207 12C0.00012207 13.9418 0.478739 15.7636 1.31358 17.3781C1.31358 17.3889 5.38788 14.2799 5.38788 14.2799C5.14298 13.5599 4.99823 12.7963 4.99823 11.9998C4.99823 11.2034 5.14298 10.4398 5.38788 9.71977L1.31358 6.62183Z" fill="#FBBC05"/>
<path d="M12.2449 4.7782C14.0483 4.7782 15.6512 5.3891 16.9314 6.56731L20.4379 3.13097C18.3117 1.18917 15.5511 0 12.2449 0C7.45829 0 3.32845 2.69456 1.3136 6.62186L5.38778 9.72007C6.35619 6.88366 9.06124 4.7782 12.2449 4.7782Z" fill="#EA4335"/>
</g>
<defs>
<clipPath id="clip0_143_236">
<rect width="24" height="24" fill="white"/>
</clipPath>
</defs>
</svg>
