<svg width="56" height="56" viewBox="0 0 56 56" fill="none" xmlns="http://www.w3.org/2000/svg">
<rect width="56" height="56" rx="10" fill="#FF6767"/>
<path d="M38.4831 16.1255C38.5925 16.1929 38.6822 16.284 38.7443 16.3908C38.8063 16.4977 38.8389 16.617 38.839 16.7381V27.81C38.839 27.9574 38.791 28.1014 38.7013 28.2235C38.6116 28.3456 38.4842 28.4401 38.3357 28.495L38.0375 27.81L38.3357 28.495L38.3308 28.4965L38.3212 28.5009L38.2844 28.5142C38.0736 28.5913 37.8614 28.6651 37.6479 28.7356C37.2247 28.8759 36.6364 29.0648 35.9695 29.2523C34.6614 29.6243 32.9573 30.0244 31.6252 30.0244C30.2674 30.0244 29.1436 29.611 28.1657 29.2493L28.1209 29.2346C27.1045 28.8581 26.2388 28.5481 25.2129 28.5481C24.0907 28.5481 22.587 28.8877 21.3062 29.2523C20.7327 29.4169 20.1644 29.5966 19.6021 29.7911V38.8819C19.6021 39.0776 19.5177 39.2654 19.3673 39.4038C19.217 39.5422 19.0131 39.62 18.8006 39.62C18.588 39.62 18.3841 39.5422 18.2338 39.4038C18.0835 39.2654 17.999 39.0776 17.999 38.8819V16.7381C17.999 16.5424 18.0835 16.3546 18.2338 16.2162C18.3841 16.0778 18.588 16 18.8006 16C19.0131 16 19.217 16.0778 19.3673 16.2162C19.5177 16.3546 19.6021 16.5424 19.6021 16.7381V17.1544C19.9644 17.0378 20.3972 16.9035 20.8685 16.7706C22.1766 16.4015 23.8823 16 25.2129 16C26.5595 16 27.656 16.4089 28.613 16.7662L28.6819 16.7927C29.679 17.1633 30.5479 17.4762 31.6252 17.4762C32.7473 17.4762 34.251 17.1367 35.5319 16.7721C36.2618 16.5622 36.9831 16.3278 37.6944 16.0694L37.7249 16.059L37.7313 16.0561H37.7329" fill="white"/>
</svg>
