<svg width="56" height="56" viewBox="0 0 56 56" fill="none" xmlns="http://www.w3.org/2000/svg">
<rect width="56" height="56" rx="10" fill="#443EDE"/>
<path d="M28 21.25C29.125 16.8091 33.374 14.5415 42.625 14.5C42.7729 14.4995 42.9194 14.5282 43.0562 14.5845C43.1929 14.6408 43.3172 14.7237 43.4217 14.8283C43.5263 14.9328 43.6092 15.0571 43.6655 15.1938C43.7218 15.3306 43.7506 15.4771 43.75 15.625V35.875C43.75 36.1734 43.6315 36.4595 43.4205 36.6705C43.2095 36.8815 42.9234 37 42.625 37C33.625 37 30.1481 38.8148 28 41.5M28 21.25C26.875 16.8091 22.626 14.5415 13.375 14.5C13.2271 14.4995 13.0806 14.5282 12.9438 14.5845C12.8071 14.6408 12.6828 14.7237 12.5783 14.8283C12.4737 14.9328 12.3908 15.0571 12.3345 15.1938C12.2782 15.3306 12.2495 15.4771 12.25 15.625V35.7393C12.25 36.434 12.6803 37 13.375 37C22.375 37 25.8646 38.8281 28 41.5M28 21.25V41.5" stroke="white" stroke-width="2" stroke-linecap="round" stroke-linejoin="round"/>
</svg>
