<svg width="56" height="56" viewBox="0 0 56 56" fill="none" xmlns="http://www.w3.org/2000/svg">
<rect width="56" height="56" rx="10" fill="#FF6767"/>
<path d="M33.7151 40.2698C33.3251 40.2698 32.9201 40.2548 32.4851 40.2098C31.7051 40.1498 30.8201 39.9998 29.9051 39.7748L27.3851 39.1748C20.4701 37.5398 18.2051 33.8798 19.8251 26.9798L21.2951 20.6948C21.6251 19.2698 22.0151 18.1148 22.4951 17.1548C25.0751 11.8298 30.0101 12.3098 33.5201 13.1348L36.0251 13.7198C39.5351 14.5448 41.7551 15.8498 43.0001 17.8448C44.2301 19.8398 44.4251 22.4048 43.6001 25.9148L42.1301 32.1848C40.8401 37.6748 38.1551 40.2698 33.7151 40.2698ZM29.6801 14.8748C27.1751 14.8748 25.5851 15.9098 24.5201 18.1298C24.1301 18.9398 23.7851 19.9448 23.4851 21.2048L22.0151 27.4898C20.6801 33.1598 22.2251 35.6348 27.8951 36.9848L30.4151 37.5848C31.2251 37.7798 31.9901 37.8998 32.6801 37.9598C36.7601 38.3648 38.7851 36.5798 39.9251 31.6748L41.3951 25.4048C42.0701 22.5098 41.9801 20.4848 41.0801 19.0298C40.1801 17.5748 38.4101 16.5848 35.5001 15.9098L32.9951 15.3248C31.7501 15.0248 30.6401 14.8748 29.6801 14.8748Z" fill="white"/>
<path d="M22.4951 43.3745C18.6401 43.3745 16.1801 41.0645 14.6051 36.1895L12.6851 30.2645C10.5551 23.6645 12.4601 19.9445 19.0301 17.8145L21.4001 17.0495C22.1801 16.8095 22.7651 16.6445 23.2901 16.5545C23.7251 16.4645 24.1451 16.6295 24.4001 16.9745C24.6551 17.3195 24.7001 17.7695 24.5201 18.1595C24.1301 18.9545 23.7851 19.9595 23.5001 21.2195L22.0301 27.5045C20.6951 33.1745 22.2401 35.6495 27.9101 36.9995L30.4301 37.5995C31.2401 37.7945 32.0051 37.9145 32.6951 37.9745C33.1751 38.0195 33.5651 38.3495 33.7001 38.8145C33.8201 39.2795 33.6401 39.7595 33.2501 40.0295C32.2601 40.7045 31.0151 41.2745 29.4401 41.7845L27.0701 42.5645C25.3451 43.1045 23.8451 43.3745 22.4951 43.3745ZM21.6701 19.3295L19.7351 19.9595C14.3801 21.6845 13.1051 24.2045 14.8301 29.5745L16.7501 35.4995C18.4901 40.8545 21.0101 42.1445 26.3651 40.4195L28.7351 39.6395C28.8251 39.6095 28.9001 39.5795 28.9901 39.5495L27.4001 39.1745C20.4851 37.5395 18.2201 33.8795 19.8401 26.9795L21.3101 20.6945C21.4151 20.2145 21.5351 19.7495 21.6701 19.3295Z" fill="white"/>
<path d="M36.2351 25.7647C36.1451 25.7647 36.0551 25.7497 35.9501 25.7347L28.6751 23.8897C28.0751 23.7397 27.7151 23.1247 27.8651 22.5247C28.0151 21.9247 28.6301 21.5647 29.2301 21.7147L36.5051 23.5597C37.1051 23.7097 37.4651 24.3247 37.3151 24.9247C37.1951 25.4197 36.7301 25.7647 36.2351 25.7647Z" fill="white"/>
<path d="M31.8402 30.8353C31.7502 30.8353 31.6602 30.8203 31.5552 30.8053L27.1902 29.6953C26.5902 29.5453 26.2302 28.9303 26.3802 28.3303C26.5302 27.7303 27.1452 27.3703 27.7452 27.5203L32.1102 28.6303C32.7102 28.7803 33.0702 29.3953 32.9202 29.9953C32.8002 30.5053 32.3502 30.8353 31.8402 30.8353Z" fill="white"/>
</svg>
