<svg width="32" height="33" viewBox="0 0 32 33" fill="none" xmlns="http://www.w3.org/2000/svg">
<path d="M15.9998 30.9134C15.0798 30.9134 14.2132 30.4467 13.5998 29.6334L11.5998 26.9667C11.5598 26.9134 11.3998 26.8467 11.3332 26.8334H10.6665C5.1065 26.8334 1.6665 25.3267 1.6665 17.8334V11.1667C1.6665 5.27341 4.77317 2.16675 10.6665 2.16675H21.3332C27.2265 2.16675 30.3332 5.27341 30.3332 11.1667V17.8334C30.3332 23.7267 27.2265 26.8334 21.3332 26.8334H20.6665C20.5598 26.8334 20.4665 26.8867 20.3998 26.9667L18.3998 29.6334C17.7865 30.4467 16.9198 30.9134 15.9998 30.9134ZM10.6665 4.16675C5.89317 4.16675 3.6665 6.39341 3.6665 11.1667V17.8334C3.6665 23.8601 5.73317 24.8334 10.6665 24.8334H11.3332C12.0132 24.8334 12.7865 25.2201 13.1998 25.7667L15.1998 28.4334C15.6665 29.0467 16.3332 29.0467 16.7998 28.4334L18.7998 25.7667C19.2398 25.1801 19.9332 24.8334 20.6665 24.8334H21.3332C26.1065 24.8334 28.3332 22.6067 28.3332 17.8334V11.1667C28.3332 6.39341 26.1065 4.16675 21.3332 4.16675H10.6665Z" fill="#443EDE"/>
<path d="M22.6668 12.1667H9.3335C8.78683 12.1667 8.3335 11.7134 8.3335 11.1667C8.3335 10.6201 8.78683 10.1667 9.3335 10.1667H22.6668C23.2135 10.1667 23.6668 10.6201 23.6668 11.1667C23.6668 11.7134 23.2135 12.1667 22.6668 12.1667Z" fill="#443EDE"/>
<path d="M17.3335 18.8333H9.3335C8.78683 18.8333 8.3335 18.3799 8.3335 17.8333C8.3335 17.2866 8.78683 16.8333 9.3335 16.8333H17.3335C17.8802 16.8333 18.3335 17.2866 18.3335 17.8333C18.3335 18.3799 17.8802 18.8333 17.3335 18.8333Z" fill="#443EDE"/>
</svg>
