<svg width="59" height="61" viewBox="0 0 59 61" fill="none" xmlns="http://www.w3.org/2000/svg">
<rect x="0.54988" y="1.14363" width="57.9184" height="58.8113" rx="7.61099" fill="white" stroke="#443EDE" stroke-width="1.0148"/>
<path d="M46.5628 16.6954L30.309 11.1954C30.031 11.1014 29.7304 11.1014 29.4523 11.1954L13.1986 16.6954C12.9289 16.7867 12.6943 16.9618 12.5281 17.196C12.3619 17.4301 12.2724 17.7114 12.2725 18V31.75C12.2725 32.1147 12.4152 32.4644 12.6692 32.7223C12.9232 32.9801 13.2677 33.125 13.6269 33.125C13.9862 33.125 14.3307 32.9801 14.5847 32.7223C14.8387 32.4644 14.9814 32.1147 14.9814 31.75V19.9078L20.6685 21.8311C19.1575 24.3092 18.6771 27.2947 19.3326 30.1321C19.9881 32.9695 21.726 35.4269 24.1648 36.9647C21.1172 38.1781 18.4827 40.373 16.556 43.3739C16.4558 43.5251 16.3862 43.695 16.3512 43.8737C16.3163 44.0524 16.3167 44.2365 16.3524 44.415C16.3881 44.5936 16.4584 44.7632 16.5593 44.9139C16.6601 45.0647 16.7895 45.1936 16.9398 45.2931C17.0902 45.3927 17.2585 45.4609 17.4351 45.4938C17.6116 45.5268 17.7928 45.5237 17.9682 45.4849C18.1436 45.4461 18.3097 45.3723 18.4567 45.2678C18.6037 45.1633 18.7288 45.0301 18.8247 44.8761C21.3762 40.9023 25.4058 38.625 29.8807 38.625C34.3555 38.625 38.3851 40.9023 40.9366 44.8761C41.1353 45.1758 41.4421 45.3841 41.7909 45.456C42.1397 45.5279 42.5023 45.4575 42.8003 45.2602C43.0984 45.0628 43.308 44.7543 43.3838 44.4013C43.4596 44.0483 43.3955 43.6793 43.2053 43.3739C41.2786 40.373 38.634 38.1781 35.5966 36.9647C38.033 35.427 39.7693 32.9712 40.4247 30.1359C41.0801 27.3005 40.6011 24.317 39.0928 21.8397L46.5628 19.3131C46.8325 19.2219 47.0672 19.0468 47.2334 18.8127C47.3997 18.5785 47.4892 18.2972 47.4892 18.0086C47.4892 17.7199 47.3997 17.4386 47.2334 17.2045C47.0672 16.9703 46.8325 16.7953 46.5628 16.704V16.6954ZM38.0075 27.625C38.0079 28.9293 37.7036 30.2151 37.1197 31.3768C36.5358 32.5386 35.6888 33.5433 34.6483 34.3085C33.6078 35.0737 32.4034 35.5775 31.134 35.7786C29.8645 35.9798 28.5662 35.8725 27.3455 35.4656C26.1248 35.0588 25.0165 34.3639 24.1116 33.438C23.2067 32.5121 22.5309 31.3816 22.1397 30.1393C21.7485 28.8969 21.653 27.5781 21.8611 26.2911C22.0692 25.004 22.575 23.7854 23.3369 22.7351L29.4523 24.7976C29.7304 24.8917 30.031 24.8917 30.309 24.7976L36.4245 22.7351C37.4534 24.1514 38.0082 25.8652 38.0075 27.625ZM29.8807 22.0511L17.9105 18L29.8807 13.9489L41.8509 18L29.8807 22.0511Z" fill="#443EDE"/>
</svg>
