<svg width="70" height="70" viewBox="0 0 70 70" fill="none" xmlns="http://www.w3.org/2000/svg">
<path d="M21.875 19.6875H30.625M21.875 35H48.125M21.875 43.75H48.125M21.875 52.5H30.625M17.5 63.4375H52.5C53.6603 63.4375 54.7731 62.9766 55.5936 62.1561C56.4141 61.3356 56.875 60.2228 56.875 59.0625V10.9375C56.875 9.77718 56.4141 8.66438 55.5936 7.84391C54.7731 7.02344 53.6603 6.5625 52.5 6.5625H17.5C16.3397 6.5625 15.2269 7.02344 14.4064 7.84391C13.5859 8.66438 13.125 9.77718 13.125 10.9375V59.0625C13.125 60.2228 13.5859 61.3356 14.4064 62.1561C15.2269 62.9766 16.3397 63.4375 17.5 63.4375Z" stroke="white" stroke-width="4" stroke-linecap="round" stroke-linejoin="round"/>
</svg>
