<svg width="62" height="62" viewBox="0 0 62 62" fill="none" xmlns="http://www.w3.org/2000/svg">
<path d="M55.0625 48.5C53.7097 48.504 52.3913 48.9267 51.2883 49.7101C50.1853 50.4934 49.3519 51.599 48.9025 52.875H43.2894L39.8812 46.0588C45.0328 43.0138 48.5 37.4181 48.5 31C48.5 24.5819 45.0328 18.9862 39.8812 15.9412L43.2894 9.125H48.9025C49.3519 10.401 50.1853 11.5066 51.2883 12.2899C52.3913 13.0733 53.7097 13.496 55.0625 13.5C58.6806 13.5 61.625 10.5556 61.625 6.9375C61.625 3.31937 58.6806 0.375 55.0625 0.375C53.7097 0.379017 52.3913 0.801723 51.2883 1.58507C50.1853 2.36842 49.3519 3.474 48.9025 4.75H43.2894C42.4762 4.7475 41.6786 4.97282 40.9869 5.40043C40.2952 5.82803 39.7372 6.44083 39.3759 7.16937L35.8606 14.1978C34.3162 13.7516 32.6887 13.5 31 13.5C29.3112 13.5 27.6837 13.7516 26.1394 14.2L22.6219 7.165C22.2599 6.43694 21.7012 5.82482 21.0091 5.39799C20.3171 4.97116 19.5193 4.74669 18.7062 4.75H13.0997C12.6501 3.47365 11.8164 2.36783 10.713 1.58444C9.6096 0.801063 8.2907 0.378566 6.9375 0.375C3.31937 0.375 0.375 3.31937 0.375 6.9375C0.375 10.5556 3.31937 13.5 6.9375 13.5C8.29033 13.496 9.60874 13.0733 10.7117 12.2899C11.8147 11.5066 12.6481 10.401 13.0975 9.125H18.7106L22.1187 15.9412C16.965 18.9862 13.5 24.5819 13.5 31C13.5 37.4181 16.965 43.0138 22.1187 46.0588L18.7106 52.875H13.0975C12.6481 51.599 11.8147 50.4934 10.7117 49.7101C9.60874 48.9267 8.29033 48.504 6.9375 48.5C3.31937 48.5 0.375 51.4444 0.375 55.0625C0.375 58.6806 3.31937 61.625 6.9375 61.625C8.29033 61.621 9.60874 61.1983 10.7117 60.4149C11.8147 59.6316 12.6481 58.526 13.0975 57.25H18.7106C19.5238 57.2525 20.3214 57.0272 21.0131 56.5996C21.7048 56.172 22.2628 55.5592 22.6241 54.8306L26.1394 47.8022C27.6837 48.2484 29.3112 48.5 31 48.5C32.6887 48.5 34.3162 48.2484 35.8606 47.8L39.3759 54.8306C39.7372 55.5592 40.2952 56.172 40.9869 56.5996C41.6786 57.0272 42.4762 57.2525 43.2894 57.25H48.9025C49.3519 58.526 50.1853 59.6316 51.2883 60.4149C52.3913 61.1983 53.7097 61.621 55.0625 61.625C58.6806 61.625 61.625 58.6806 61.625 55.0625C61.625 51.4444 58.6806 48.5 55.0625 48.5ZM55.0625 4.75C55.6257 4.77519 56.1576 5.01667 56.5472 5.42415C56.9369 5.83163 57.1543 6.3737 57.1543 6.9375C57.1543 7.5013 56.9369 8.04337 56.5472 8.45085C56.1576 8.85833 55.6257 9.0998 55.0625 9.125C54.4823 9.125 53.9259 8.89453 53.5157 8.48429C53.1055 8.07406 52.875 7.51766 52.875 6.9375C52.875 6.35734 53.1055 5.80094 53.5157 5.3907C53.9259 4.98047 54.4823 4.75 55.0625 4.75ZM6.9375 9.125C6.37426 9.0998 5.84245 8.85833 5.45279 8.45085C5.06313 8.04337 4.84566 7.5013 4.84566 6.9375C4.84566 6.3737 5.06313 5.83163 5.45279 5.42415C5.84245 5.01667 6.37426 4.77519 6.9375 4.75C7.50074 4.77519 8.03255 5.01667 8.42221 5.42415C8.81187 5.83163 9.02933 6.3737 9.02933 6.9375C9.02933 7.5013 8.81187 8.04337 8.42221 8.45085C8.03255 8.85833 7.50074 9.0998 6.9375 9.125ZM6.9375 57.25C6.37426 57.2248 5.84245 56.9833 5.45279 56.5758C5.06313 56.1684 4.84566 55.6263 4.84566 55.0625C4.84566 54.4987 5.06313 53.9566 5.45279 53.5491C5.84245 53.1417 6.37426 52.9002 6.9375 52.875C7.50074 52.9002 8.03255 53.1417 8.42221 53.5491C8.81187 53.9566 9.02933 54.4987 9.02933 55.0625C9.02933 55.6263 8.81187 56.1684 8.42221 56.5758C8.03255 56.9833 7.50074 57.2248 6.9375 57.25ZM18.5006 31C18.5006 24.1094 24.1072 18.5006 31 18.5006C37.8928 18.5006 43.4994 24.1072 43.4994 31C43.4994 37.8928 37.8928 43.4994 31 43.4994C24.1072 43.4994 18.5006 37.8928 18.5006 31ZM55.0625 57.25C54.4993 57.2248 53.9674 56.9833 53.5778 56.5758C53.1881 56.1684 52.9707 55.6263 52.9707 55.0625C52.9707 54.4987 53.1881 53.9566 53.5778 53.5491C53.9674 53.1417 54.4993 52.9002 55.0625 52.875C55.6257 52.9002 56.1576 53.1417 56.5472 53.5491C56.9369 53.9566 57.1543 54.4987 57.1543 55.0625C57.1543 55.6263 56.9369 56.1684 56.5472 56.5758C56.1576 56.9833 55.6257 57.2248 55.0625 57.25Z" fill="white"/>
</svg>
