<svg width="62" height="62" viewBox="0 0 62 62" fill="none" xmlns="http://www.w3.org/2000/svg">
<path d="M9.125 41.9375V39.75H4.75V41.9375C4.75 45.9986 6.36328 49.8934 9.23493 52.7651C12.1066 55.6367 16.0014 57.25 20.0625 57.25H26.625V52.875H20.0625C17.1617 52.875 14.3797 51.7227 12.3285 49.6715C10.2773 47.6203 9.125 44.8383 9.125 41.9375ZM48.5 20.0625V22.25H52.875V20.0625C52.875 16.0014 51.2617 12.1066 48.3901 9.23493C45.5184 6.36328 41.6236 4.75 37.5625 4.75H31V9.125H37.5625C38.9988 9.125 40.4211 9.40791 41.7481 9.95757C43.0751 10.5072 44.2808 11.3129 45.2965 12.3285C46.3121 13.3442 47.1178 14.5499 47.6674 15.8769C48.2171 17.2039 48.5 18.6262 48.5 20.0625ZM20.0625 20.0625H6.9375C5.19702 20.0625 3.52782 20.7539 2.29711 21.9846C1.0664 23.2153 0.375 24.8845 0.375 26.625V31H4.75V26.625C4.75 26.0448 4.98047 25.4884 5.3907 25.0782C5.80094 24.668 6.35734 24.4375 6.9375 24.4375H20.0625C20.6427 24.4375 21.1991 24.668 21.6093 25.0782C22.0195 25.4884 22.25 26.0448 22.25 26.625V31H26.625V26.625C26.625 24.8845 25.9336 23.2153 24.7029 21.9846C23.4722 20.7539 21.803 20.0625 20.0625 20.0625ZM13.5 17.875C15.2306 17.875 16.9223 17.3618 18.3612 16.4004C19.8002 15.4389 20.9217 14.0723 21.5839 12.4735C22.2462 10.8746 22.4195 9.1153 22.0819 7.41796C21.7443 5.72063 20.9109 4.16153 19.6872 2.93782C18.4635 1.71411 16.9044 0.880753 15.207 0.543133C13.5097 0.205512 11.7504 0.378791 10.1515 1.04106C8.55267 1.70332 7.1861 2.82483 6.22464 4.26376C5.26318 5.70269 4.75 7.39442 4.75 9.125C4.75 11.4457 5.67187 13.6712 7.31282 15.3122C8.95376 16.9531 11.1794 17.875 13.5 17.875ZM13.5 4.75C14.3653 4.75 15.2112 5.00659 15.9306 5.48733C16.6501 5.96806 17.2108 6.65134 17.542 7.45076C17.8731 8.25019 17.9597 9.12986 17.7909 9.97853C17.6221 10.8272 17.2054 11.6067 16.5936 12.2186C15.9817 12.8305 15.2022 13.2471 14.3535 13.4159C13.5049 13.5848 12.6252 13.4981 11.8258 13.167C11.0263 12.8358 10.3431 12.2751 9.86232 11.5556C9.38159 10.8362 9.125 9.9903 9.125 9.125C9.125 7.96468 9.58594 6.85188 10.4064 6.03141C11.2269 5.21094 12.3397 4.75 13.5 4.75ZM55.0625 50.6875H41.9375C40.197 50.6875 38.5278 51.3789 37.2971 52.6096C36.0664 53.8403 35.375 55.5095 35.375 57.25V61.625H39.75V57.25C39.75 56.6698 39.9805 56.1134 40.3907 55.7032C40.8009 55.293 41.3573 55.0625 41.9375 55.0625H55.0625C55.6427 55.0625 56.1991 55.293 56.6093 55.7032C57.0195 56.1134 57.25 56.6698 57.25 57.25V61.625H61.625V57.25C61.625 55.5095 60.9336 53.8403 59.7029 52.6096C58.4722 51.3789 56.803 50.6875 55.0625 50.6875ZM39.75 39.75C39.75 41.4806 40.2632 43.1723 41.2246 44.6112C42.1861 46.0502 43.5527 47.1717 45.1515 47.834C46.7504 48.4962 48.5097 48.6695 50.207 48.3319C51.9044 47.9943 53.4635 47.1609 54.6872 45.9372C55.9109 44.7135 56.7443 43.1544 57.0819 41.4571C57.4195 39.7597 57.2462 38.0004 56.5839 36.4015C55.9217 34.8027 54.8002 33.4361 53.3612 32.4746C51.9223 31.5132 50.2306 31 48.5 31C46.1794 31 43.9538 31.9219 42.3128 33.5628C40.6719 35.2038 39.75 37.4294 39.75 39.75ZM52.875 39.75C52.875 40.6153 52.6184 41.4612 52.1377 42.1806C51.6569 42.9001 50.9737 43.4608 50.1742 43.792C49.3748 44.1231 48.4951 44.2098 47.6465 44.0409C46.7978 43.8721 46.0183 43.4555 45.4064 42.8436C44.7946 42.2317 44.3779 41.4522 44.2091 40.6035C44.0403 39.7549 44.1269 38.8752 44.458 38.0758C44.7892 37.2763 45.3499 36.5931 46.0694 36.1123C46.7888 35.6316 47.6347 35.375 48.5 35.375C49.6603 35.375 50.7731 35.8359 51.5936 36.6564C52.4141 37.4769 52.875 38.5897 52.875 39.75Z" fill="white"/>
</svg>
