<svg width="58" height="52" viewBox="0 0 58 52" fill="none" xmlns="http://www.w3.org/2000/svg">
<path d="M29 26C34.6097 26 39.15 21.0096 39.15 14.8438C39.15 8.67793 34.6097 3.6875 29 3.6875C23.3903 3.6875 18.85 8.67793 18.85 14.8438C18.85 21.0096 23.3903 26 29 26Z" fill="#443EDE"/>
<path d="M35.96 29.1875H35.2078C33.3228 30.1836 31.2294 30.7812 29 30.7812C26.7706 30.7812 24.6862 30.1836 22.7922 29.1875H22.04C16.2762 29.1875 11.6 34.3273 11.6 40.6625V43.5312C11.6 46.1709 13.5484 48.3125 15.95 48.3125H42.05C44.4516 48.3125 46.4 46.1709 46.4 43.5312V40.6625C46.4 34.3273 41.7237 29.1875 35.96 29.1875Z" fill="#443EDE"/>
<path d="M52.2 26H46.4C44.805 26 43.3641 26.7072 42.3128 27.8527C45.965 30.0541 48.5569 34.0285 49.1187 38.75H55.1C56.7041 38.75 58 37.3256 58 35.5625V32.375C58 28.8588 55.3991 26 52.2 26Z" fill="#443EDE"/>
<path fill-rule="evenodd" clip-rule="evenodd" d="M8.7 22.8125C11.8991 22.8125 14.5 19.9537 14.5 16.4375C14.5 12.9213 11.8991 10.0625 8.7 10.0625C5.50094 10.0625 2.9 12.9213 2.9 16.4375C2.9 19.9537 5.50094 22.8125 8.7 22.8125ZM49.3 22.8125C52.4991 22.8125 55.1 19.9537 55.1 16.4375C55.1 12.9213 52.4991 10.0625 49.3 10.0625C46.1009 10.0625 43.5 12.9213 43.5 16.4375C43.5 19.9537 46.1009 22.8125 49.3 22.8125Z" fill="#443EDE"/>
<path d="M15.6872 27.8527C14.6359 26.7072 13.195 26 11.6 26H5.8C2.60094 26 0 28.8588 0 32.375V35.5625C0 37.3256 1.29594 38.75 2.9 38.75H8.87219C9.44312 34.0285 12.035 30.0541 15.6872 27.8527Z" fill="#443EDE"/>
</svg>
