<svg width="24" height="25" viewBox="0 0 24 25" fill="none" xmlns="http://www.w3.org/2000/svg">
<path d="M8.25 3.08789C5.08319 3.08789 2.5 5.67109 2.5 8.83789V16.3379C2.5 19.5043 5.0831 22.0879 8.25 22.0879H15.75C18.9165 22.0879 21.5 19.5044 21.5 16.3379V8.83789C21.5 5.671 18.9164 3.08789 15.75 3.08789H8.25ZM8.25 4.58789H15.75C18.1056 4.58789 20 6.48179 20 8.83789V16.3379C20 18.6934 18.1055 20.5879 15.75 20.5879H8.25C5.8939 20.5879 4 18.6935 4 16.3379V8.83789C4 6.4817 5.8938 4.58789 8.25 4.58789ZM17 6.58789C16.4475 6.58789 16 7.03539 16 7.58789C16 8.14039 16.4475 8.58789 17 8.58789C17.5525 8.58789 18 8.14039 18 7.58789C18 7.03539 17.5525 6.58789 17 6.58789ZM12 7.58789C9.24759 7.58789 7 9.83548 7 12.5879C7 15.3403 9.24759 17.5879 12 17.5879C14.7524 17.5879 17 15.3403 17 12.5879C17 9.83548 14.7524 7.58789 12 7.58789ZM12 9.08789C13.9416 9.08789 15.5 10.6463 15.5 12.5879C15.5 14.5295 13.9416 16.0879 12 16.0879C10.0584 16.0879 8.5 14.5295 8.5 12.5879C8.5 10.6463 10.0584 9.08789 12 9.08789Z" fill="#F4F4F4"/>
</svg>
