<svg width="24" height="25" viewBox="0 0 24 25" fill="none" xmlns="http://www.w3.org/2000/svg">
<path d="M5.75 3.58789C4.24011 3.58789 3 4.828 3 6.33789V18.8379C3 20.3478 4.24011 21.5879 5.75 21.5879H18.25C19.7599 21.5879 21 20.3478 21 18.8379V6.33789C21 4.828 19.7599 3.58789 18.25 3.58789H5.75ZM5.75 5.08789H18.25C18.9491 5.08789 19.5 5.63878 19.5 6.33789V18.8379C19.5 19.537 18.9491 20.0879 18.25 20.0879H5.75C5.05089 20.0879 4.5 19.537 4.5 18.8379V6.33789C4.5 5.63878 5.05089 5.08789 5.75 5.08789ZM7.75 7.08789C7.41848 7.08789 7.10054 7.21959 6.86612 7.45401C6.6317 7.68843 6.5 8.00637 6.5 8.33789C6.5 8.66941 6.6317 8.98735 6.86612 9.22177C7.10054 9.45619 7.41848 9.58789 7.75 9.58789C8.08152 9.58789 8.39946 9.45619 8.63388 9.22177C8.8683 8.98735 9 8.66941 9 8.33789C9 8.00637 8.8683 7.68843 8.63388 7.45401C8.39946 7.21959 8.08152 7.08789 7.75 7.08789ZM7 10.5879C6.7235 10.5879 6.5 10.8114 6.5 11.0879V17.5879C6.5 17.8644 6.7235 18.0879 7 18.0879H8.5C8.7765 18.0879 9 17.8644 9 17.5879V11.0879C9 10.8114 8.7765 10.5879 8.5 10.5879H7ZM10.5 10.5879C10.2235 10.5879 10 10.8114 10 11.0879V17.5879C10 17.8644 10.2235 18.0879 10.5 18.0879H12C12.2765 18.0879 12.5 17.8644 12.5 17.5879V13.8379C12.5 13.1484 13.0605 12.5879 13.75 12.5879C14.4395 12.5879 15 13.1484 15 13.8379V17.5879C15 17.8644 15.2235 18.0879 15.5 18.0879H17C17.2765 18.0879 17.5 17.8644 17.5 17.5879V13.5879C17.5 11.9334 16.1545 10.5879 14.5 10.5879C13.731 10.5879 13.0315 10.8809 12.5 11.3584V11.0879C12.5 10.8114 12.2765 10.5879 12 10.5879H10.5Z" fill="#F4F4F4"/>
</svg>
