<svg width="190" height="48" viewBox="0 0 190 48" fill="none" xmlns="http://www.w3.org/2000/svg">
<path d="M9.09974 6.48785L25.2074 0.50369C26.0805 0.17931 27.0425 0.18789 27.9097 0.527792L43.1743 6.51069C46.3243 7.74534 46.4001 12.1756 43.2941 13.5172L28.0264 20.112C27.0906 20.5162 26.0314 20.5263 25.0881 20.1401L8.98364 13.5466C5.78954 12.2389 5.86437 7.68982 9.09974 6.48785Z" fill="white"/>
<path d="M24.1457 22.6527C18.2584 20.4712 14.6671 18.4402 8.91949 16.2679C8.39777 16.0707 7.84253 16.4583 7.84253 17.016V31.6983C7.84253 32.1422 8.20388 32.4994 8.64694 32.527C15.5758 32.9585 20.3 38.9 22.8608 43.4343C23.2958 44.2046 24.6752 43.8964 24.6752 43.0118V23.4101C24.6752 23.0721 24.4627 22.7702 24.1457 22.6527Z" fill="#443EDE"/>
<path d="M28.9348 22.6527C34.8222 20.4712 38.4134 18.4402 44.1611 16.2679C44.6828 16.0707 45.238 16.4583 45.238 17.016V31.6983C45.238 32.1422 44.8767 32.4994 44.4336 32.527C37.5047 32.9585 32.7806 38.9 30.2197 43.4343C29.7847 44.2046 28.4054 43.8964 28.4054 43.0118V23.4101C28.4054 23.0721 28.6179 22.7702 28.9348 22.6527Z" fill="#FBC350"/>
<path d="M63.6621 34.0762V13.9162H76.8221V17.4722H67.4701V21.7842H75.1421V25.3402H67.4701V30.5202H76.8221V34.0762H63.6621ZM86.3098 34.4962C84.9191 34.4962 83.7011 34.1462 82.6558 33.4462C81.6104 32.7462 80.7938 31.7942 80.2058 30.5902C79.6271 29.3862 79.3378 28.0282 79.3378 26.5162C79.3378 24.9762 79.6318 23.6088 80.2198 22.4142C80.8171 21.2102 81.6524 20.2628 82.7258 19.5722C83.7991 18.8815 85.0591 18.5362 86.5058 18.5362C87.9431 18.5362 89.1518 18.8862 90.1318 19.5862C91.1118 20.2862 91.8538 21.2382 92.3578 22.4422C92.8618 23.6462 93.1138 25.0042 93.1138 26.5162C93.1138 28.0282 92.8571 29.3862 92.3438 30.5902C91.8398 31.7942 91.0838 32.7462 90.0758 33.4462C89.0678 34.1462 87.8124 34.4962 86.3098 34.4962ZM86.9258 31.1082C87.7751 31.1082 88.4518 30.9168 88.9558 30.5342C89.4691 30.1515 89.8378 29.6148 90.0618 28.9242C90.2858 28.2335 90.3978 27.4308 90.3978 26.5162C90.3978 25.6015 90.2858 24.7988 90.0618 24.1082C89.8378 23.4175 89.4784 22.8808 88.9838 22.4982C88.4984 22.1155 87.8591 21.9242 87.0658 21.9242C86.2164 21.9242 85.5164 22.1342 84.9658 22.5542C84.4244 22.9648 84.0231 23.5202 83.7618 24.2202C83.5004 24.9108 83.3698 25.6762 83.3698 26.5162C83.3698 27.3655 83.4958 28.1402 83.7478 28.8402C83.9998 29.5308 84.3871 30.0815 84.9098 30.4922C85.4324 30.9028 86.1044 31.1082 86.9258 31.1082ZM90.3978 34.0762V23.7162H89.9218V13.9162H93.7578V34.0762H90.3978ZM103.306 34.5242C102.12 34.5242 101.154 34.3235 100.408 33.9222C99.6611 33.5208 99.0778 33.0122 98.6578 32.3962C98.2471 31.7802 97.9531 31.1408 97.7758 30.4782C97.5984 29.8062 97.4911 29.1948 97.4538 28.6442C97.4164 28.0935 97.3978 27.6922 97.3978 27.4402V18.9562H101.262V26.0962C101.262 26.4415 101.28 26.8848 101.318 27.4262C101.355 27.9582 101.472 28.4948 101.668 29.0362C101.864 29.5775 102.181 30.0302 102.62 30.3942C103.068 30.7582 103.698 30.9402 104.51 30.9402C104.836 30.9402 105.186 30.8888 105.56 30.7862C105.933 30.6835 106.283 30.4875 106.61 30.1982C106.936 29.8995 107.202 29.4655 107.408 28.8962C107.622 28.3175 107.73 27.5615 107.73 26.6282L109.914 27.6642C109.914 28.8588 109.671 29.9788 109.186 31.0242C108.7 32.0695 107.968 32.9142 106.988 33.5582C106.017 34.2022 104.79 34.5242 103.306 34.5242ZM108.206 34.0762V29.0642H107.73V18.9562H111.566V34.0762H108.206ZM120.155 34.0762V17.4722H113.799V13.9162H130.319V17.4722H123.963V34.0762H120.155ZM137.354 34.4962C135.805 34.4962 134.438 34.1648 133.252 33.5022C132.076 32.8302 131.152 31.9108 130.48 30.7442C129.818 29.5682 129.486 28.2242 129.486 26.7122C129.486 25.0602 129.813 23.6228 130.466 22.4002C131.12 21.1775 132.02 20.2302 133.168 19.5582C134.316 18.8768 135.637 18.5362 137.13 18.5362C138.717 18.5362 140.066 18.9095 141.176 19.6562C142.287 20.4028 143.108 21.4528 143.64 22.8062C144.172 24.1595 144.359 25.7508 144.2 27.5802H140.434V26.1802C140.434 24.6402 140.187 23.5342 139.692 22.8622C139.207 22.1808 138.409 21.8402 137.298 21.8402C136.001 21.8402 135.044 22.2368 134.428 23.0302C133.822 23.8142 133.518 24.9762 133.518 26.5162C133.518 27.9255 133.822 29.0175 134.428 29.7922C135.044 30.5575 135.945 30.9402 137.13 30.9402C137.877 30.9402 138.516 30.7768 139.048 30.4502C139.58 30.1235 139.986 29.6522 140.266 29.0362L144.074 30.1282C143.505 31.5095 142.604 32.5828 141.372 33.3482C140.15 34.1135 138.81 34.4962 137.354 34.4962ZM132.342 27.5802V24.7522H142.366V27.5802H132.342ZM154.025 34.4962C152.457 34.4962 151.113 34.1462 149.993 33.4462C148.873 32.7462 148.015 31.7942 147.417 30.5902C146.82 29.3862 146.521 28.0282 146.521 26.5162C146.521 24.9855 146.829 23.6182 147.445 22.4142C148.071 21.2102 148.948 20.2628 150.077 19.5722C151.207 18.8815 152.541 18.5362 154.081 18.5362C155.864 18.5362 157.357 18.9888 158.561 19.8942C159.775 20.7902 160.549 22.0175 160.885 23.5762L157.077 24.5842C156.853 23.8002 156.461 23.1888 155.901 22.7502C155.351 22.3115 154.725 22.0922 154.025 22.0922C153.223 22.0922 152.565 22.2882 152.051 22.6802C151.538 23.0628 151.16 23.5902 150.917 24.2622C150.675 24.9248 150.553 25.6762 150.553 26.5162C150.553 27.8322 150.843 28.9008 151.421 29.7222C152.009 30.5342 152.877 30.9402 154.025 30.9402C154.884 30.9402 155.537 30.7442 155.985 30.3522C156.433 29.9602 156.769 29.4002 156.993 28.6722L160.885 29.4842C160.456 31.0895 159.644 32.3262 158.449 33.1942C157.255 34.0622 155.78 34.4962 154.025 34.4962ZM173.99 34.0762V26.9362C173.99 26.5908 173.971 26.1522 173.934 25.6202C173.896 25.0788 173.78 24.5375 173.584 23.9962C173.388 23.4548 173.066 23.0022 172.618 22.6382C172.179 22.2742 171.554 22.0922 170.742 22.0922C170.415 22.0922 170.065 22.1435 169.692 22.2462C169.318 22.3488 168.968 22.5495 168.642 22.8482C168.315 23.1375 168.044 23.5668 167.83 24.1362C167.624 24.7055 167.522 25.4615 167.522 26.4042L165.338 25.3682C165.338 24.1735 165.58 23.0535 166.066 22.0082C166.551 20.9628 167.279 20.1182 168.25 19.4742C169.23 18.8302 170.462 18.5082 171.946 18.5082C173.131 18.5082 174.097 18.7088 174.844 19.1102C175.59 19.5115 176.169 20.0202 176.58 20.6362C177 21.2522 177.298 21.8962 177.476 22.5682C177.653 23.2308 177.76 23.8375 177.798 24.3882C177.835 24.9388 177.854 25.3402 177.854 25.5922V34.0762H173.99ZM163.658 34.0762V13.9162H167.046V24.2762H167.522V34.0762H163.658Z" fill="white"/>
</svg>
