<svg width="32" height="32" viewBox="0 0 32 32" fill="none" xmlns="http://www.w3.org/2000/svg">
<path d="M23.4932 12.8269H16.4932C15.9465 12.8269 15.4932 12.3736 15.4932 11.8269C15.4932 11.2802 15.9465 10.8269 16.4932 10.8269H23.4932C24.0398 10.8269 24.4932 11.2802 24.4932 11.8269C24.4932 12.3736 24.0532 12.8269 23.4932 12.8269Z" fill="#443EDE"/>
<path d="M9.49325 13.8397C9.23991 13.8397 8.98658 13.7464 8.78658 13.5464L7.78658 12.5464C7.39992 12.1597 7.39992 11.5197 7.78658 11.133C8.17325 10.7464 8.81325 10.7464 9.19992 11.133L9.49325 11.4264L11.7866 9.13302C12.1732 8.74635 12.8132 8.74635 13.1999 9.13302C13.5866 9.51968 13.5866 10.1597 13.1999 10.5464L10.1999 13.5464C10.0132 13.733 9.75991 13.8397 9.49325 13.8397Z" fill="#443EDE"/>
<path d="M23.4932 22.1602H16.4932C15.9465 22.1602 15.4932 21.7068 15.4932 21.1602C15.4932 20.6135 15.9465 20.1602 16.4932 20.1602H23.4932C24.0398 20.1602 24.4932 20.6135 24.4932 21.1602C24.4932 21.7068 24.0532 22.1602 23.4932 22.1602Z" fill="#443EDE"/>
<path d="M9.49325 23.1732C9.23991 23.1732 8.98658 23.0798 8.78658 22.8798L7.78658 21.8798C7.39992 21.4932 7.39992 20.8532 7.78658 20.4665C8.17325 20.0798 8.81325 20.0798 9.19992 20.4665L9.49325 20.7598L11.7866 18.4665C12.1732 18.0798 12.8132 18.0798 13.1999 18.4665C13.5866 18.8532 13.5866 19.4932 13.1999 19.8798L10.1999 22.8798C10.0132 23.0665 9.75991 23.1732 9.49325 23.1732Z" fill="#443EDE"/>
<path d="M19.9998 30.3334H11.9998C4.75984 30.3334 1.6665 27.2401 1.6665 20.0001V12.0001C1.6665 4.76008 4.75984 1.66675 11.9998 1.66675H19.9998C27.2398 1.66675 30.3332 4.76008 30.3332 12.0001V20.0001C30.3332 27.2401 27.2398 30.3334 19.9998 30.3334ZM11.9998 3.66675C5.85317 3.66675 3.6665 5.85341 3.6665 12.0001V20.0001C3.6665 26.1467 5.85317 28.3334 11.9998 28.3334H19.9998C26.1465 28.3334 28.3332 26.1467 28.3332 20.0001V12.0001C28.3332 5.85341 26.1465 3.66675 19.9998 3.66675H11.9998Z" fill="#443EDE"/>
</svg>
