<svg width="40" height="54" viewBox="0 0 40 54" fill="none" xmlns="http://www.w3.org/2000/svg">
<path d="M6.66667 0.333008H24.31C25.194 0.333197 26.0417 0.68451 26.6667 1.30967L39.0233 13.6663C39.6485 14.2913 39.9998 15.139 40 16.023V46.9997C40 48.7678 39.2976 50.4635 38.0474 51.7137C36.7971 52.964 35.1014 53.6663 33.3333 53.6663H6.66667C4.89856 53.6663 3.20286 52.964 1.95262 51.7137C0.702379 50.4635 0 48.7678 0 46.9997V6.99967C0 5.23156 0.702379 3.53587 1.95262 2.28563C3.20286 1.03539 4.89856 0.333008 6.66667 0.333008V0.333008ZM25 5.33301V11.9997C25 12.8837 25.3512 13.7316 25.9763 14.3567C26.6014 14.9818 27.4493 15.333 28.3333 15.333H35L25 5.33301Z" fill="#FF6767"/>
<path d="M10.43 35.493C10.43 36.003 10.02 36.413 9.42 36.413C8.81 36.413 8.4 36.003 8.4 35.493C8.4 34.963 8.81 34.553 9.42 34.553C10.02 34.553 10.43 34.963 10.43 35.493ZM13.6523 32.453H14.5823C15.2623 32.453 15.5523 32.113 15.5523 31.573C15.5523 31.033 15.2623 30.693 14.5823 30.693H13.6523V32.453ZM17.2923 31.573C17.2923 32.733 16.5023 33.813 14.7123 33.813H13.6523V36.333H11.9423V29.313H14.7123C16.4323 29.313 17.2923 30.283 17.2923 31.573ZM21.3125 29.313C23.5525 29.313 24.9925 30.733 24.9925 32.823C24.9925 34.903 23.5525 36.333 21.3125 36.333H18.6825V29.313H21.3125ZM20.3925 34.853H21.2025C22.4925 34.853 23.2525 34.113 23.2525 32.823C23.2525 31.533 22.4925 30.773 21.2025 30.773H20.3925V34.853ZM26.4481 36.333V29.313H31.0181V30.683H28.1581V32.163H30.2981V33.493H28.1581V36.333H26.4481Z" fill="white"/>
</svg>
