<svg width="16" height="16" viewBox="0 0 16 16" fill="none" xmlns="http://www.w3.org/2000/svg">
<path d="M9.66869 5.07878H11.3354V6.74544C11.3354 7.20378 11.7104 7.57878 12.1687 7.57878C12.627 7.57878 13.002 7.20378 13.002 6.74544V5.07878H14.6687C15.127 5.07878 15.502 4.70378 15.502 4.24544C15.502 3.78711 15.127 3.41211 14.6687 3.41211H13.002V1.74544C13.002 1.28711 12.627 0.912109 12.1687 0.912109C11.7104 0.912109 11.3354 1.28711 11.3354 1.74544V3.41211H9.66869C9.21035 3.41211 8.83535 3.78711 8.83535 4.24544C8.83535 4.70378 9.21035 5.07878 9.66869 5.07878ZM14.0104 11.1371L11.8937 10.8954C11.3854 10.8371 10.8854 11.0121 10.527 11.3704L8.99369 12.9038C6.63535 11.7038 4.70202 9.77878 3.50202 7.41211L5.04369 5.87044C5.40202 5.51211 5.57702 5.00378 5.51869 4.50378L5.27702 2.40378C5.18535 1.56211 4.46869 0.920443 3.62702 0.920443H2.18535C1.24369 0.920443 0.460353 1.70378 0.518686 2.64544C0.960353 9.76211 6.65202 15.4454 13.7604 15.8871C14.702 15.9454 15.4854 15.1621 15.4854 14.2204V12.7788C15.4937 11.9454 14.852 11.2288 14.0104 11.1371Z" fill="white"/>
</svg>
