<svg width="32" height="32" viewBox="0 0 32 32" fill="none" xmlns="http://www.w3.org/2000/svg">
<path d="M16 21C13.24 21 11 18.76 11 16C11 13.24 13.24 11 16 11C18.76 11 21 13.24 21 16C21 18.76 18.76 21 16 21ZM16 13C14.3467 13 13 14.3467 13 16C13 17.6533 14.3467 19 16 19C17.6533 19 19 17.6533 19 16C19 14.3467 17.6533 13 16 13Z" fill="#443EDE"/>
<path d="M20.2798 29.5866C19.9998 29.5866 19.7198 29.5466 19.4398 29.48C18.6132 29.2533 17.9198 28.7333 17.4798 28L17.3198 27.7333C16.5332 26.3733 15.4532 26.3733 14.6665 27.7333L14.5198 27.9866C14.0798 28.7333 13.3865 29.2666 12.5598 29.48C11.7198 29.7066 10.8532 29.5866 10.1198 29.1466L7.8265 27.8266C7.01317 27.36 6.4265 26.6 6.17317 25.68C5.93317 24.76 6.05317 23.8133 6.51984 23C6.9065 22.32 7.01317 21.7066 6.7865 21.32C6.55984 20.9333 5.9865 20.7066 5.19984 20.7066C3.25317 20.7066 1.6665 19.12 1.6665 17.1733V14.8266C1.6665 12.88 3.25317 11.2933 5.19984 11.2933C5.9865 11.2933 6.55984 11.0666 6.7865 10.68C7.01317 10.2933 6.91984 9.67998 6.51984 8.99998C6.05317 8.18664 5.93317 7.22664 6.17317 6.31997C6.41317 5.39997 6.99984 4.63998 7.8265 4.17331L10.1332 2.85331C11.6398 1.95998 13.6265 2.47997 14.5332 4.01331L14.6932 4.27997C15.4798 5.63998 16.5598 5.63998 17.3465 4.27997L17.4932 4.02664C18.3998 2.47997 20.3865 1.95998 21.9065 2.86664L24.1998 4.18664C25.0132 4.65331 25.5998 5.41331 25.8532 6.33331C26.0932 7.25331 25.9732 8.19998 25.5065 9.01331C25.1198 9.69331 25.0132 10.3066 25.2398 10.6933C25.4665 11.08 26.0398 11.3066 26.8265 11.3066C28.7732 11.3066 30.3598 12.8933 30.3598 14.84V17.1866C30.3598 19.1333 28.7732 20.72 26.8265 20.72C26.0398 20.72 25.4665 20.9466 25.2398 21.3333C25.0132 21.72 25.1065 22.3333 25.5065 23.0133C25.9732 23.8266 26.1065 24.7866 25.8532 25.6933C25.6132 26.6133 25.0265 27.3733 24.1998 27.84L21.8932 29.16C21.3865 29.44 20.8398 29.5866 20.2798 29.5866ZM15.9998 24.6533C17.1865 24.6533 18.2932 25.4 19.0532 26.72L19.1998 26.9733C19.3598 27.2533 19.6265 27.4533 19.9465 27.5333C20.2665 27.6133 20.5865 27.5733 20.8532 27.4133L23.1598 26.08C23.5065 25.88 23.7732 25.5466 23.8798 25.1466C23.9865 24.7466 23.9332 24.3333 23.7332 23.9866C22.9732 22.68 22.8798 21.3333 23.4665 20.3066C24.0532 19.28 25.2665 18.6933 26.7865 18.6933C27.6398 18.6933 28.3198 18.0133 28.3198 17.16V14.8133C28.3198 13.9733 27.6398 13.28 26.7865 13.28C25.2665 13.28 24.0532 12.6933 23.4665 11.6666C22.8798 10.64 22.9732 9.29331 23.7332 7.98664C23.9332 7.63998 23.9865 7.22664 23.8798 6.82664C23.7732 6.42664 23.5198 6.10664 23.1732 5.89331L20.8665 4.57331C20.2932 4.22664 19.5332 4.42664 19.1865 5.01331L19.0398 5.26664C18.2798 6.58664 17.1732 7.33331 15.9865 7.33331C14.7998 7.33331 13.6932 6.58664 12.9332 5.26664L12.7865 4.99997C12.4532 4.43997 11.7065 4.23998 11.1332 4.57331L8.8265 5.90664C8.47984 6.10664 8.21317 6.43998 8.1065 6.83998C7.99984 7.23998 8.05317 7.65331 8.25317 7.99998C9.01317 9.30664 9.1065 10.6533 8.51984 11.68C7.93317 12.7066 6.71984 13.2933 5.19984 13.2933C4.3465 13.2933 3.6665 13.9733 3.6665 14.8266V17.1733C3.6665 18.0133 4.3465 18.7066 5.19984 18.7066C6.71984 18.7066 7.93317 19.2933 8.51984 20.32C9.1065 21.3466 9.01317 22.6933 8.25317 24C8.05317 24.3466 7.99984 24.76 8.1065 25.16C8.21317 25.56 8.4665 25.88 8.81317 26.0933L11.1198 27.4133C11.3998 27.5866 11.7332 27.6266 12.0398 27.5466C12.3598 27.4666 12.6265 27.2533 12.7998 26.9733L12.9465 26.72C13.7065 25.4133 14.8132 24.6533 15.9998 24.6533Z" fill="#443EDE"/>
</svg>
