<svg width="32" height="33" viewBox="0 0 32 33" fill="none" xmlns="http://www.w3.org/2000/svg">
<path d="M21.3335 30.8334H10.6668C6.64016 30.8334 4.3335 28.5267 4.3335 24.5001V11.5001C4.3335 7.30008 6.46683 5.16675 10.6668 5.16675C11.2135 5.16675 11.6668 5.62008 11.6668 6.16675C11.6668 6.70008 11.8802 7.20674 12.2535 7.58008C12.6268 7.95341 13.1335 8.16675 13.6668 8.16675H18.3335C19.4402 8.16675 20.3335 7.27341 20.3335 6.16675C20.3335 5.62008 20.7868 5.16675 21.3335 5.16675C25.5335 5.16675 27.6668 7.30008 27.6668 11.5001V24.5001C27.6668 28.5267 25.3602 30.8334 21.3335 30.8334ZM9.80013 7.19342C7.69346 7.36675 6.3335 8.31341 6.3335 11.5001V24.5001C6.3335 27.4601 7.70683 28.8334 10.6668 28.8334H21.3335C24.2935 28.8334 25.6668 27.4601 25.6668 24.5001V11.5001C25.6668 8.31341 24.3069 7.38009 22.2002 7.19342C21.7469 8.90009 20.1868 10.1667 18.3335 10.1667H13.6668C12.6002 10.1667 11.6002 9.75341 10.8402 8.99341C10.3335 8.48674 9.9868 7.87342 9.80013 7.19342Z" fill="#443EDE"/>
<path d="M18.3332 10.1667H13.6665C12.5998 10.1667 11.5998 9.75341 10.8398 8.99341C10.0798 8.23341 9.6665 7.23341 9.6665 6.16675C9.6665 3.96675 11.4665 2.16675 13.6665 2.16675H18.3332C19.3998 2.16675 20.3998 2.58009 21.1598 3.34009C21.9198 4.10009 22.3332 5.10008 22.3332 6.16675C22.3332 8.36675 20.5332 10.1667 18.3332 10.1667ZM13.6665 4.16675C12.5598 4.16675 11.6665 5.06008 11.6665 6.16675C11.6665 6.70008 11.8798 7.20674 12.2532 7.58008C12.6265 7.95341 13.1332 8.16675 13.6665 8.16675H18.3332C19.4398 8.16675 20.3332 7.27341 20.3332 6.16675C20.3332 5.63341 20.1198 5.12675 19.7465 4.75342C19.3732 4.38008 18.8665 4.16675 18.3332 4.16675H13.6665Z" fill="#443EDE"/>
<path d="M15.9998 18.8333H10.6665C10.1198 18.8333 9.6665 18.3799 9.6665 17.8333C9.6665 17.2866 10.1198 16.8333 10.6665 16.8333H15.9998C16.5465 16.8333 16.9998 17.2866 16.9998 17.8333C16.9998 18.3799 16.5465 18.8333 15.9998 18.8333Z" fill="#443EDE"/>
<path d="M21.3332 24.1667H10.6665C10.1198 24.1667 9.6665 23.7134 9.6665 23.1667C9.6665 22.6201 10.1198 22.1667 10.6665 22.1667H21.3332C21.8798 22.1667 22.3332 22.6201 22.3332 23.1667C22.3332 23.7134 21.8798 24.1667 21.3332 24.1667Z" fill="#443EDE"/>
</svg>
