<svg width="32" height="32" viewBox="0 0 32 32" fill="none" xmlns="http://www.w3.org/2000/svg">
<path d="M27.9999 8.97338C27.9732 8.97338 27.9332 8.97338 27.8932 8.97338C20.8399 8.26672 13.7999 8.00005 6.82655 8.70672L4.10655 8.97338C3.54655 9.02672 3.05322 8.62672 2.99989 8.06672C2.94655 7.50672 3.34655 7.02672 3.89322 6.97338L6.61322 6.70672C13.7066 5.98672 20.8932 6.26672 28.0932 6.97338C28.6399 7.02672 29.0399 7.52005 28.9866 8.06672C28.9466 8.58672 28.5066 8.97338 27.9999 8.97338Z" fill="#443EDE"/>
<path d="M11.3335 7.62675C11.2802 7.62675 11.2268 7.62675 11.1602 7.61341C10.6268 7.52008 10.2535 7.00008 10.3468 6.46675L10.6402 4.72008C10.8535 3.44008 11.1468 1.66675 14.2535 1.66675H17.7468C20.8668 1.66675 21.1602 3.50675 21.3602 4.73341L21.6535 6.46675C21.7468 7.01341 21.3735 7.53341 20.8402 7.61341C20.2935 7.70675 19.7735 7.33341 19.6935 6.80008L19.4002 5.06675C19.2135 3.90675 19.1735 3.68008 17.7602 3.68008H14.2668C12.8535 3.68008 12.8268 3.86675 12.6268 5.05341L12.3202 6.78675C12.2402 7.28008 11.8135 7.62675 11.3335 7.62675Z" fill="#443EDE"/>
<path d="M20.2802 30.3334H11.7202C7.06686 30.3334 6.88019 27.7601 6.73352 25.6801L5.86686 12.2534C5.82686 11.7068 6.25352 11.2268 6.80019 11.1868C7.36019 11.1601 7.82686 11.5734 7.86686 12.1201L8.73352 25.5468C8.88019 27.5734 8.93352 28.3334 11.7202 28.3334H20.2802C23.0802 28.3334 23.1335 27.5734 23.2669 25.5468L24.1335 12.1201C24.1735 11.5734 24.6535 11.1601 25.2002 11.1868C25.7469 11.2268 26.1735 11.6934 26.1335 12.2534L25.2669 25.6801C25.1202 27.7601 24.9335 30.3334 20.2802 30.3334Z" fill="#443EDE"/>
<path d="M18.2134 23H13.7734C13.2268 23 12.7734 22.5467 12.7734 22C12.7734 21.4533 13.2268 21 13.7734 21H18.2134C18.7601 21 19.2134 21.4533 19.2134 22C19.2134 22.5467 18.7601 23 18.2134 23Z" fill="#443EDE"/>
<path d="M19.3332 17.6667H12.6665C12.1198 17.6667 11.6665 17.2134 11.6665 16.6667C11.6665 16.1201 12.1198 15.6667 12.6665 15.6667H19.3332C19.8798 15.6667 20.3332 16.1201 20.3332 16.6667C20.3332 17.2134 19.8798 17.6667 19.3332 17.6667Z" fill="#443EDE"/>
</svg>
