<svg width="22" height="19" viewBox="0 0 22 19" fill="none" xmlns="http://www.w3.org/2000/svg">
<path d="M14.9999 0.587891C12.2842 0.587891 10.0802 2.78226 10.0214 5.48438C7.62028 5.19639 6.05671 4.29864 5.09757 3.41406C4.03391 2.43308 3.69718 1.56152 3.69718 1.56152C3.64802 1.43766 3.56675 1.32913 3.46173 1.2471C3.35671 1.16507 3.23173 1.1125 3.09965 1.09479C2.96757 1.07709 2.83316 1.09489 2.71025 1.14637C2.58733 1.19785 2.48035 1.28115 2.40031 1.3877C2.40031 1.3877 1.49992 2.58789 1.49992 4.33789C1.49992 5.33838 1.81581 6.07867 2.1923 6.70605C2.17843 6.69956 2.08488 6.66699 2.08488 6.66699C1.96534 6.60731 1.83204 6.58064 1.69874 6.58974C1.56544 6.59883 1.437 6.64337 1.32668 6.71874C1.21636 6.79411 1.12818 6.89758 1.07125 7.01845C1.01432 7.13932 0.990701 7.2732 1.00285 7.40625C1.00285 7.40625 1.29152 9.51631 3.27531 11.0586L3.06828 11.1104C2.95589 11.1384 2.85154 11.1921 2.76338 11.2672C2.67523 11.3424 2.60568 11.4369 2.56018 11.5434C2.51467 11.65 2.49446 11.7656 2.50112 11.8812C2.50777 11.9968 2.54112 12.1094 2.59855 12.21C2.59855 12.21 2.93494 12.779 3.63956 13.3779C4.05734 13.733 4.67105 14.0995 5.39445 14.4385C4.50605 14.7631 3.18132 15.0879 1.24992 15.0879C1.10579 15.0879 0.964715 15.1294 0.843563 15.2074C0.722411 15.2855 0.626314 15.3968 0.566768 15.5281C0.507222 15.6593 0.48675 15.8049 0.5078 15.9475C0.528849 16.0901 0.59053 16.2236 0.685463 16.332C0.685463 16.332 1.25858 16.9634 2.39152 17.5127C3.52446 18.062 5.26965 18.5879 7.74992 18.5879C12.1098 18.5879 15.2422 16.4965 17.1972 13.8457C19.1521 11.1949 19.9999 8.01845 19.9999 5.58789C19.9999 5.43366 19.9903 5.28161 19.9765 5.13086C21.0321 4.11369 21.4282 3.34901 21.4472 3.31152C21.5422 3.12102 21.5068 2.89223 21.3593 2.74023C21.2123 2.58773 20.9844 2.54479 20.7909 2.63379L20.7099 2.6709C20.6404 2.7029 20.5709 2.7351 20.5009 2.7666C20.7044 2.4421 20.865 2.09533 20.9765 1.73633C21.0385 1.53833 20.9715 1.32136 20.8075 1.19336C20.6435 1.06536 20.4176 1.05166 20.2402 1.16016C19.629 1.53157 19.0432 1.79159 18.4335 1.96582C17.5362 1.11463 16.3284 0.587891 14.9999 0.587891ZM14.9999 2.08789C16.9415 2.08789 18.4999 3.6463 18.4999 5.58789C18.4999 7.65734 17.7227 10.6058 15.9902 12.9551C14.2576 15.3043 11.6401 17.0879 7.74992 17.0879C5.86732 17.0879 4.61501 16.7474 3.67667 16.3789C4.65959 16.2263 5.50589 16.0226 6.11417 15.7871C7.16901 15.3788 7.7382 14.9072 7.7382 14.9072C7.8426 14.8176 7.92035 14.701 7.96293 14.5702C8.00551 14.4394 8.01129 14.2993 7.97963 14.1655C7.94798 14.0316 7.8801 13.909 7.78343 13.811C7.68677 13.7131 7.56504 13.6437 7.43156 13.6104C6.07019 13.27 5.19708 12.7195 4.64933 12.2607L5.43156 12.0654C5.58625 12.0268 5.72462 11.9399 5.82658 11.8174C5.92854 11.6948 5.98879 11.5429 5.99859 11.3838C6.00839 11.2246 5.96722 11.0665 5.88106 10.9324C5.7949 10.7982 5.66824 10.695 5.51945 10.6377C3.89689 10.0136 3.21553 9.13108 2.8671 8.3916C3.29109 8.47937 3.68586 8.58789 4.24992 8.58789C4.41882 8.58775 4.58273 8.53061 4.71512 8.42572C4.84751 8.32082 4.94061 8.17432 4.97937 8.00992C5.01812 7.84552 5.00026 7.67286 4.92866 7.51988C4.85707 7.3669 4.73594 7.24256 4.58488 7.16699C4.58488 7.16699 2.99992 6.43789 2.99992 4.33789C2.99992 3.96086 3.10434 3.72207 3.18058 3.43652C3.44217 3.78807 3.65776 4.12719 4.07999 4.5166C5.36733 5.70387 7.4951 6.91447 10.7099 7.08691C10.8116 7.09234 10.9134 7.07699 11.009 7.0418C11.1046 7.00661 11.192 6.95232 11.2659 6.88223C11.3398 6.81214 11.3987 6.72773 11.4389 6.63415C11.4792 6.54056 11.4999 6.43976 11.4999 6.33789V5.58789C11.4999 3.6463 13.0583 2.08789 14.9999 2.08789Z" fill="#F4F4F4"/>
</svg>
