<svg width="32" height="33" viewBox="0 0 32 33" fill="none" xmlns="http://www.w3.org/2000/svg">
<path d="M26.36 15.5H20.9733C18.2933 15.5 17 14.3133 17 11.86V5.80667C17 3.35333 18.3067 2.16667 20.9733 2.16667H26.36C29.04 2.16667 30.3333 3.35333 30.3333 5.80667V11.8467C30.3333 14.3133 29.0267 15.5 26.36 15.5ZM20.9733 4.16667C19.1867 4.16667 19 4.67333 19 5.80667V11.8467C19 12.9933 19.1867 13.4867 20.9733 13.4867H26.36C28.1467 13.4867 28.3333 12.98 28.3333 11.8467V5.80667C28.3333 4.66 28.1467 4.16667 26.36 4.16667H20.9733Z" fill="#443EDE"/>
<path d="M26.36 30.8333H20.9733C18.2933 30.8333 17 29.5267 17 26.86V21.4733C17 18.7933 18.3067 17.5 20.9733 17.5H26.36C29.04 17.5 30.3333 18.8067 30.3333 21.4733V26.86C30.3333 29.5267 29.0267 30.8333 26.36 30.8333ZM20.9733 19.5C19.4 19.5 19 19.9 19 21.4733V26.86C19 28.4333 19.4 28.8333 20.9733 28.8333H26.36C27.9333 28.8333 28.3333 28.4333 28.3333 26.86V21.4733C28.3333 19.9 27.9333 19.5 26.36 19.5H20.9733Z" fill="#443EDE"/>
<path d="M11.0265 15.5H5.63984C2.95984 15.5 1.6665 14.3133 1.6665 11.86V5.80667C1.6665 3.35333 2.97317 2.16667 5.63984 2.16667H11.0265C13.7065 2.16667 14.9998 3.35333 14.9998 5.80667V11.8467C14.9998 14.3133 13.6932 15.5 11.0265 15.5ZM5.63984 4.16667C3.85317 4.16667 3.6665 4.67333 3.6665 5.80667V11.8467C3.6665 12.9933 3.85317 13.4867 5.63984 13.4867H11.0265C12.8132 13.4867 12.9998 12.98 12.9998 11.8467V5.80667C12.9998 4.66 12.8132 4.16667 11.0265 4.16667H5.63984Z" fill="#443EDE"/>
<path d="M11.0265 30.8333H5.63984C2.95984 30.8333 1.6665 29.5267 1.6665 26.86V21.4733C1.6665 18.7933 2.97317 17.5 5.63984 17.5H11.0265C13.7065 17.5 14.9998 18.8067 14.9998 21.4733V26.86C14.9998 29.5267 13.6932 30.8333 11.0265 30.8333ZM5.63984 19.5C4.0665 19.5 3.6665 19.9 3.6665 21.4733V26.86C3.6665 28.4333 4.0665 28.8333 5.63984 28.8333H11.0265C12.5998 28.8333 12.9998 28.4333 12.9998 26.86V21.4733C12.9998 19.9 12.5998 19.5 11.0265 19.5H5.63984Z" fill="#443EDE"/>
</svg>
